<svg xmlns="http://www.w3.org/2000/svg" viewBox="0 0 146.31 88.64"><path d="M176.82,76.59q0-5.06-3.93-5H142.7V62.67a7.22,7.22,0,0,0-1.38-4.29q-1.38-1.93-5-1.83l-19.07.51c-.48,0-.75-.11-.82-.31a2.17,2.17,0,0,1-.1-.71V53a2.24,2.24,0,0,1,.1-.72.47.47,0,0,1,.06-.09,1.34,1.34,0,0,1,.65-.12h41a7,7,0,0,0,4.32-1.15,3.68,3.68,0,0,0,.84-.83,7,7,0,0,0,1.38-4.23V32.27a6,6,0,0,0-1.38-4q-1.38-1.63-5.05-1.63H108a3.64,3.64,0,0,0-2.42.77c-1,.78-1.54,2.23-1.52,4.37,0,3.37,1.31,5.05,3.83,5.05h43.55c.48,0,.75.1.82.31a2.48,2.48,0,0,1,.1.71v3.06a2.48,2.48,0,0,1-.1.71s0,.06-.06.09a1.32,1.32,0,0,1-.65.13h-41A7,7,0,0,0,106.25,43a3.72,3.72,0,0,0-.84.84A7,7,0,0,0,104,48.07V60.62a8.13,8.13,0,0,0,1.38,4.48q1.38,2.15,5,2.15l19.07-.51c.48,0,.75.1.82.3a2.55,2.55,0,0,1,.1.72v3.78H96.29a3.64,3.64,0,0,0-2.42.77c-1,.78-1.54,2.23-1.52,4.37,0,3.37,1.31,5,3.83,5h76.6a3.69,3.69,0,0,0,2.43-.77C176.26,80.17,176.8,78.72,176.82,76.59Z" transform="translate(-30.51 -26.66)"/><path d="M163.48,86.59q-1.38-1.87-5.06-1.88H110.61q-3.67,0-5.06,1.88a7,7,0,0,0-1.38,4.24v18a7.1,7.1,0,0,0,.83,3.35,8.84,8.84,0,0,0,.69,1.18q1.38,1.89,5.06,1.89h47.81q3.67,0,5.06-1.89a7,7,0,0,0,1.38-4.23V91.12a7.1,7.1,0,0,0-.83-3.35A8.84,8.84,0,0,0,163.48,86.59ZM152.72,96v7.65a2.48,2.48,0,0,1-.1.71c-.07.21-.35.31-.82.31H117.32a1.17,1.17,0,0,1-.69-.15,2.08,2.08,0,0,1-.08-.58V96.32a2.17,2.17,0,0,1,.1-.71c.07-.2.34-.31.81-.31h34.48a1.22,1.22,0,0,1,.7.16A2.37,2.37,0,0,1,152.72,96Z" transform="translate(-30.51 -26.66)"/><path d="M89.72,37.14a27.6,27.6,0,0,0-19.58-7.55,28,28,0,0,0-19.79,7.5,24.65,24.65,0,0,0,0,36.46A27.33,27.33,0,0,0,64,80.49V95.38a2.28,2.28,0,0,1-.1.72c-.07.2-.34.3-.82.3H34.34c-2.52,0-3.79,1.72-3.83,5.15q0,3.28,1.53,4.48a3.7,3.7,0,0,0,2.3.67H69.73c2.45,0,4.13-.62,5-1.88a7,7,0,0,0,1.38-4.24V80.49a27.5,27.5,0,0,0,13.56-7,24.48,24.48,0,0,0,0-36.31ZM81.16,66.26a16,16,0,0,1-22.09,0,14.57,14.57,0,0,1-4.64-11,14.6,14.6,0,0,1,4.64-11,16,16,0,0,1,22.09,0,15.16,15.16,0,0,1,0,21.93Z" transform="translate(-30.51 -26.66)"/></svg>