<svg xmlns="http://www.w3.org/2000/svg" viewBox="0 0 1956.04 796.36"><defs><style>.a{fill:none;stroke:#000;stroke-miterlimit:10;stroke-width:6px;}</style></defs><path class="a" d="M.5,946.5c243.91-3.56,649.07-.39,735.12.35a16.16,16.16,0,0,0,16.31-16.23l-1.4-100.69a6.47,6.47,0,0,0-6.46-6.43H725.32a7,7,0,0,1-7.05-6.81l-.57-16.29a5.7,5.7,0,0,1,5.7-5.9h29.29a1.55,1.55,0,0,1,.48,3l-19.62,6.36a4.6,4.6,0,0,1-6-4.74l10.32-131.5a13.9,13.9,0,0,1,8.06-11.54l10.49-4.81a4.3,4.3,0,0,1,6.09,3.91v.16a5.72,5.72,0,0,1-6.09,5.74l-23.91-1.6-59.74-14.94a7.94,7.94,0,0,0-9.74,6.32L640.5,778.5,627.31,880.29a9.67,9.67,0,0,1-6.81,8l-14,4.21a2.27,2.27,0,0,0,.34,4.42l23.46,3.26a9.59,9.59,0,0,1,4.12,1.59l31,21.14a2.9,2.9,0,0,1-1.72,5.28l-55.12-1.7s-25,4-28-5c-2.45-7.35-.9-135.28-.25-182,0-1.76,8.08-76.75,9.89-93.61a39.73,39.73,0,0,1,1.28-6.57l6.48-22.67a31.86,31.86,0,0,1,30.63-23.1h49.64a15.21,15.21,0,0,1,9.49,3.33l3.59,2.87c4.16,3.32,10.89,4,14.75.3l8.21-5.78a4.31,4.31,0,0,0-3.91-7.34l-6.59,2.43a5.11,5.11,0,0,0-3.33,4.61l-.68,18.93a8.19,8.19,0,0,0,5,7.84l26.24,11a8.21,8.21,0,0,0,10.21-3.33l3.4-5.68a8.21,8.21,0,0,0,.75-6.8l-8.55-25.64a8.19,8.19,0,0,0-5-5.13l-25.29-9a7.22,7.22,0,0,1-3.23-2.29l-39-48.32a19,19,0,0,0-14.81-7.08h0a1.65,1.65,0,0,1-.38-3.26l.33-.08a19,19,0,0,0,14.55-19.23l-3.12-81.28a10.88,10.88,0,0,0-7-9.72h0a10.86,10.86,0,0,0-11.29,2.17l-18.78,17.39a10.89,10.89,0,0,0-3.47,7.44L616.67,505a10.9,10.9,0,0,0,1.76,6.47l35.23,53.92a12.19,12.19,0,0,1-9.8,18.84l-29.4,1a11.47,11.47,0,0,1-11.71-9.58C597.36,543.38,582.55,441.27,608,403c28.27-42.52,35.82-23.61,38-28,0,0,31,16,31,13,0-1.79-5.86-9.95-6.14-13.4-.23-2.66-1.45-4.69-1.86-4.6l-15.85-18.52c-.65-3.87-1.9-4.73-3.31-5.2l-3.19-1.06a8.25,8.25,0,0,1-5.15-5c-2.2-6-5.5-13.23,2-14.73,10.24-2.05,13,18,13,18S675,372,690,374c10.43,1.39,12.4-27.45,12.63-45.14,0-1.47,0-2.86,0-4.16,0-3.22-.06-5.81-.1-7.42a11.38,11.38,0,0,0-.69-3.6c-3.13-8.6-18-44.29-45.37-30.18-31,16-29,41-29,41l13,35V361a9.94,9.94,0,0,0,3.43,7.51l46.18,40a7.93,7.93,0,0,1,2.69,5.21c2,20.89,13.85,139.37,25.7,154.86,13,17,89,47,86,72s-44,158-29,160c10.49,1.4,26.36,3.29,35,4.3A9.09,9.09,0,0,1,818,811c1.69,5.11,6,10,8.46,10.53,6.2,1.24,48,1,54,0,4.42-.74,6.67-71.91,7.55-109.42a24,24,0,0,1,23.1-23.45l52.62-2a29.87,29.87,0,0,0,28.73-29.85V577.24a26.71,26.71,0,0,1,27.72-26.68l49.79,1.89a28.43,28.43,0,0,0,29.45-26.39l5.33-74.6a27.85,27.85,0,0,1,25.66-25.79l63.06-4.81a33.54,33.54,0,0,0,31-33.44V326.51a28.32,28.32,0,0,1,27-28.29l83.55-4A16.25,16.25,0,0,0,1350.5,278V173.11a16.61,16.61,0,0,1,16.61-16.61H1956.5" transform="translate(-0.46 -153.5)"/></svg>